<svg version="1.1" id="Layer_1" xmlns="http://www.w3.org/2000/svg" xmlns:xlink="http://www.w3.org/1999/xlink" x="0px" y="0px"
	 width="100%" viewBox="0 0 500 500" enable-background="new 0 0 500 500" xml:space="preserve">
<path fill="#251F23" opacity="1.000000" stroke="none" 
	d="
M234.000000,501.000000 
	C156.000015,501.000000 78.500038,501.000000 1.000041,501.000000 
	C1.000028,334.333405 1.000028,167.666779 1.000014,1.000131 
	C167.666565,1.000087 334.333130,1.000087 500.999756,1.000044 
	C500.999847,167.666519 500.999847,334.333038 500.999939,500.999786 
	C412.166656,501.000000 323.333344,501.000000 234.000000,501.000000 
M321.888733,176.306854 
	C321.187378,175.533997 320.486053,174.761124 318.830322,172.936584 
	C319.588226,175.701508 319.913422,176.887863 319.695160,178.515915 
	C317.971283,180.364487 315.715698,181.974365 314.735870,184.156952 
	C314.203613,185.342560 315.550446,187.742661 316.662750,189.088150 
	C317.036255,189.539978 319.548462,188.765793 320.662109,187.965851 
	C324.570984,185.157990 324.886047,181.885376 321.888733,176.306854 
M253.911957,372.377625 
	C253.224106,372.756744 252.536255,373.135864 251.848404,373.514954 
	C252.320679,374.313599 252.813690,375.804413 253.261627,375.790955 
	C255.196838,375.732971 258.122894,375.850739 258.800537,374.746277 
	C259.721222,373.245636 259.369720,370.526123 258.693848,368.641296 
	C258.257111,367.423340 256.263336,366.763763 254.368912,365.433899 
	C256.516205,364.943146 257.928467,364.620361 259.340698,364.297607 
	C259.471497,363.886505 259.602325,363.475403 259.733124,363.064331 
	C258.346619,362.416992 256.867645,361.119812 255.598892,361.300262 
	C254.259232,361.490875 252.531830,362.870941 252.059998,364.136383 
	C251.596039,365.380676 252.141724,367.342621 252.890671,368.606750 
	C253.723099,370.011780 255.286057,370.983978 255.465698,372.221191 
	C255.138519,372.361542 254.811340,372.501892 253.911957,372.377625 
M304.750305,370.380768 
	C304.750305,372.165436 304.750305,373.950104 304.750305,376.274872 
	C307.914520,376.121246 310.677429,375.987091 313.440369,375.852936 
	C313.523743,375.331207 313.607117,374.809479 313.690491,374.287750 
	C311.946991,373.667053 310.203461,373.046356 307.447144,372.065094 
	C309.227509,370.364777 310.636963,369.018707 312.281219,367.448395 
	C311.053192,366.744720 309.915375,366.092743 308.268097,365.148834 
	C309.810944,364.737793 311.140106,364.745819 311.842163,364.086334 
	C312.444885,363.520203 312.330841,362.190979 312.533752,361.199219 
	C309.784882,361.628387 306.237061,359.013702 303.781036,363.822754 
	C303.354736,363.606049 302.949921,363.313721 302.498505,363.185242 
	C300.120148,362.508362 297.729980,361.872772 295.343964,361.222870 
	C294.870667,363.152313 294.154968,365.060699 293.985229,367.016479 
	C293.771576,369.478180 293.880463,371.990509 294.116394,374.455505 
	C294.191559,375.240662 295.115967,375.944489 294.901337,375.647644 
	C298.447113,373.334167 301.282867,371.483948 304.750305,370.380768 
M230.936325,201.040771 
	C246.992661,200.953918 263.049011,200.867081 279.998505,200.834534 
	C282.384888,200.985977 284.771271,201.137421 287.477417,201.309158 
	C287.190674,203.774857 287.093475,205.587936 286.756256,207.355225 
	C284.107056,221.238052 281.429749,235.115601 278.723694,248.987473 
	C277.298920,256.291351 277.265045,256.284760 269.934753,254.702454 
	C269.772003,254.667328 269.593994,254.571777 269.448395,254.607544 
	C265.392792,255.603882 260.948608,255.890076 257.393005,257.815704 
	C253.498688,259.924774 252.130768,264.274078 253.472382,268.730774 
	C254.624420,272.557770 256.721191,274.069244 261.568024,274.161346 
	C273.553162,274.389252 280.060852,270.261749 282.394348,258.442017 
	C285.937012,240.497635 289.624420,222.574051 292.653046,204.541321 
	C293.433411,199.895096 292.406891,194.784653 291.410095,190.056183 
	C290.724731,186.805038 288.520172,184.796387 284.276215,184.869553 
	C266.632812,185.173798 248.981110,184.985962 231.332474,185.004257 
	C225.701447,185.010101 224.018814,186.717545 223.871185,192.462952 
	C223.790451,195.605515 224.187744,198.828979 223.626160,201.879105 
	C220.585190,218.395660 217.323914,234.871796 214.100952,251.354492 
	C213.766891,253.062927 213.184830,254.722870 212.656708,256.625519 
	C209.714386,255.813004 207.374130,254.961395 204.958817,254.541229 
	C199.417557,253.577332 194.737534,255.357254 191.209366,259.717651 
	C187.883224,263.828339 188.116837,270.031799 192.219391,273.178986 
	C193.866898,274.442871 196.883743,273.807159 199.217896,274.311340 
	C207.199188,276.035431 216.009064,270.473328 217.581482,262.475006 
	C219.762344,251.381744 221.741699,240.248505 223.968933,229.164841 
	C225.860336,219.752502 227.980698,210.386169 230.936325,201.040771 
M195.229706,126.725861 
	C190.124237,135.262405 185.072586,143.831818 179.888641,152.320435 
	C177.591339,156.082199 175.026535,159.680588 172.427444,163.587173 
	C170.528809,162.140060 169.336258,160.528015 167.916000,160.293182 
	C164.842514,159.785019 161.261093,159.023254 158.598953,160.109299 
	C154.289948,161.867188 154.673248,166.677872 158.815384,168.990982 
	C165.576782,172.766754 170.318069,171.651459 174.564529,165.239166 
	C177.045776,161.492416 179.454483,157.697693 181.928955,153.946411 
	C187.095535,146.113907 192.284088,138.295898 197.862823,129.868927 
	C208.167679,137.144135 220.891907,137.116608 229.148148,146.579987 
	C231.243805,148.982056 230.768845,150.016388 229.551300,151.881943 
	C224.820847,159.130112 220.101425,166.385620 215.334808,173.609985 
	C213.994614,175.641174 212.507217,177.575241 210.941528,179.757080 
	C209.223099,178.441650 208.038773,176.835251 206.622253,176.594360 
	C203.536469,176.069580 200.085266,175.448837 197.242050,176.336441 
	C194.019211,177.342575 193.283722,182.371002 195.379410,184.288818 
	C200.174591,188.677094 208.695114,188.562820 212.080826,183.023972 
	C219.813553,170.373566 230.289062,159.350449 234.960098,144.850601 
	C236.061050,141.433014 235.602158,139.200485 232.002701,137.734589 
	C221.681778,133.531357 211.480331,129.030014 201.103867,124.973343 
	C199.645126,124.403046 197.470337,125.664246 195.229706,126.725861 
M255.191406,336.632416 
	C255.133820,337.463135 255.017227,338.294708 255.029556,339.124390 
	C255.069336,341.804810 253.855362,345.453217 258.198395,345.632751 
	C261.924377,345.786835 262.457581,342.585968 262.769806,339.646667 
	C263.063232,336.884369 263.347443,334.121094 263.648529,331.235016 
	C266.003723,331.113037 267.822998,331.111023 269.619904,330.909302 
	C276.437897,330.144135 281.964874,324.507721 281.843475,318.521362 
	C281.717804,312.323334 274.521790,306.277802 267.108429,306.142151 
	C260.771423,306.026154 257.919250,309.406982 257.120605,317.833374 
	C256.555267,323.798126 255.893738,329.753784 255.191406,336.632416 
M205.001068,336.575256 
	C206.758530,335.638855 208.648743,334.887299 210.251831,333.735962 
	C220.319519,326.505493 219.193542,313.240387 207.984268,307.895142 
	C205.326126,306.627563 202.339508,305.891693 199.422012,305.366791 
	C196.117325,304.772186 194.037720,306.023895 193.938614,309.880280 
	C193.776321,316.196350 193.186783,322.501404 193.023590,328.817474 
	C192.721344,340.516113 193.086975,340.725800 205.001068,336.575256 
M289.787354,315.093567 
	C288.866119,321.332428 287.791779,327.553741 287.074249,333.815948 
	C286.543152,338.450867 288.156982,339.933533 292.641693,339.649811 
	C296.447021,339.409088 300.322540,339.528076 304.028534,338.791351 
	C305.830566,338.433105 307.316010,336.482422 308.944763,335.252655 
	C307.383362,333.885651 306.005157,331.757843 304.218231,331.327667 
	C301.448212,330.660858 298.399506,331.151672 295.425171,331.151672 
	C295.889465,326.473480 295.936676,326.717407 300.287384,325.875458 
	C301.881042,325.567047 303.192291,323.798981 304.632385,322.696777 
	C303.494446,321.297333 302.545166,319.651123 301.151855,318.585632 
	C300.232056,317.882294 298.673981,318.013580 297.428284,317.776215 
	C297.940765,312.636993 297.940826,312.643341 302.087769,312.610443 
	C303.412689,312.599945 304.898041,312.908569 306.017914,312.412201 
	C307.196930,311.889618 308.777161,310.613647 308.824585,309.603180 
	C308.888336,308.244171 307.761322,305.695435 306.955017,305.617096 
	C302.387054,305.173279 297.507141,304.438416 293.276947,305.669769 
	C291.477753,306.193512 290.998169,311.250641 289.787354,315.093567 
M231.599243,328.498169 
	C231.059570,323.731781 230.773666,318.915649 229.854202,314.223694 
	C229.490891,312.369690 227.717026,310.792084 226.585434,309.088623 
	C225.132599,310.596436 222.365967,312.185699 222.453552,313.597961 
	C222.840027,319.830444 223.250122,326.272034 225.163162,332.145599 
	C227.509781,339.350342 234.848984,341.090088 240.988754,336.467773 
	C248.394302,330.892578 249.844589,322.772583 249.405319,314.140076 
	C249.259201,311.268280 247.500107,309.067413 244.572617,309.950073 
	C243.304596,310.332367 242.454483,312.998260 241.931732,314.778748 
	C240.602875,319.304718 240.013992,324.102051 238.226486,328.416931 
	C237.306076,330.638733 234.535522,332.747986 231.599243,328.498169 
M316.103485,131.553101 
	C311.672058,136.267288 307.190216,140.935364 302.825226,145.710281 
	C299.360382,149.500534 299.560699,150.129944 303.689240,152.234604 
	C310.115570,143.600906 316.564789,135.369354 326.565277,130.679428 
	C321.813751,125.703346 321.813751,125.703346 316.103485,131.553101 
M235.571274,372.208252 
	C236.164780,373.494354 236.758286,374.780457 237.351791,376.066559 
	C237.834274,374.835968 238.649689,373.627319 238.732544,372.370392 
	C238.927933,369.406555 238.866226,366.414642 238.702805,363.445404 
	C238.656830,362.609985 237.897995,361.813812 237.466141,360.999634 
	C236.601822,361.560669 235.602814,361.993805 234.912811,362.720367 
	C234.281067,363.385620 233.983154,364.367920 233.394424,365.482605 
	C232.834030,364.757904 232.486969,364.222260 232.054581,363.767853 
	C231.130173,362.796417 230.161591,361.867004 229.211105,360.920349 
	C228.701004,362.131287 227.869843,363.310760 227.747437,364.559692 
	C227.490082,367.184875 227.442810,369.858643 227.638443,372.487946 
	C227.729767,373.715149 228.586929,374.885345 229.096954,376.081390 
	C229.705917,374.973907 230.425262,373.909668 230.882507,372.742737 
	C231.156982,372.042206 231.022415,371.181335 231.051102,370.722107 
	C232.681870,370.983704 234.071594,371.206635 235.571274,372.208252 
M270.081573,370.644989 
	C268.928802,365.742157 271.790680,363.800934 276.652069,363.341125 
	C271.387207,359.413177 269.032501,360.733459 266.325928,368.273132 
	C265.745331,365.684601 265.198303,363.245880 264.651276,360.807129 
	C264.216583,360.891510 263.781921,360.975891 263.347229,361.060272 
	C263.347229,366.074738 263.347229,371.089233 263.347229,376.103699 
	C263.789856,376.160736 264.232483,376.217804 264.675079,376.274841 
	C265.158020,374.518829 265.640961,372.762848 265.831238,372.070984 
	C268.115784,373.489197 270.409668,375.213135 272.971680,376.311981 
	C273.694458,376.621948 275.202301,375.101471 276.795685,374.156189 
	C273.966431,372.957397 272.124634,372.177032 270.081573,370.644989 
M203.353424,361.026215 
	C202.890244,361.143616 202.022736,361.259003 202.022141,361.378693 
	C201.997681,366.321655 202.047424,371.265045 202.151474,376.207062 
	C202.152405,376.251648 203.011566,376.278168 203.472366,376.313293 
	C204.141968,373.935730 204.778625,371.675171 205.415283,369.414612 
	C205.978745,369.528168 206.542206,369.641724 207.105667,369.755280 
	C207.294128,371.339478 207.369934,372.949585 207.725616,374.495331 
	C207.871368,375.128815 208.528580,375.834564 209.132324,376.100006 
	C209.482452,376.253937 210.411453,375.736877 210.694748,375.281860 
	C211.744934,373.595154 210.186218,362.578552 208.419601,360.551025 
	C207.740829,362.642029 207.147141,364.470947 206.553436,366.299835 
	C206.134079,366.341278 205.714722,366.382690 205.295349,366.424133 
	C204.894012,364.768127 204.492661,363.112152 203.353424,361.026215 
M327.177979,364.928314 
	C327.376709,368.807159 327.575439,372.686035 327.774170,376.564880 
	C328.397705,376.562317 329.021240,376.559784 329.644775,376.557220 
	C330.129395,374.758606 330.614044,372.959991 331.110260,371.118347 
	C332.887878,372.915558 334.604858,374.651428 336.321838,376.387299 
	C336.830200,376.030090 337.338531,375.672913 337.846893,375.315704 
	C334.670105,370.759338 331.698090,366.182953 337.149902,360.782257 
	C336.541809,360.651672 335.933716,360.521088 335.325592,360.390472 
	C333.904968,361.580139 332.484314,362.769775 331.027740,363.989502 
	C330.442413,362.925934 329.863190,361.873413 328.684021,359.730804 
	C327.951416,361.842010 327.566406,362.951569 327.177979,364.928314 
M213.913300,360.988281 
	C213.201187,365.853119 212.489090,370.717957 211.722916,375.952118 
	C215.481033,375.952118 218.199173,375.952118 220.917313,375.952118 
	C221.103165,375.449341 221.289032,374.946594 221.474884,374.443817 
	C219.754486,373.768005 218.034088,373.092224 215.164978,371.965179 
	C216.977692,370.381500 218.422882,369.118927 220.132446,367.625366 
	C218.940445,366.834625 217.826920,366.095947 216.737930,365.373535 
	C218.313477,364.405426 219.851288,363.460480 221.389114,362.515533 
	C221.157623,361.981232 220.926147,361.446930 220.694656,360.912628 
	C218.729828,360.912628 216.764999,360.912628 213.913300,360.988281 
M168.010468,370.050720 
	C168.010468,371.983154 168.010468,373.915588 168.010468,376.340088 
	C171.220703,376.163788 174.013077,376.010437 176.805450,375.857086 
	C176.890091,375.349518 176.974731,374.841919 177.059372,374.334351 
	C175.327469,373.696075 173.595566,373.057831 170.817017,372.033813 
	C172.565598,370.325439 173.938629,368.984009 175.550461,367.409241 
	C174.315247,366.705566 173.170685,366.053528 172.085358,365.435272 
	C173.638626,364.424408 175.120346,363.460083 176.602066,362.495789 
	C174.731888,361.975250 172.878311,361.376862 170.983246,360.973145 
	C170.244232,360.815704 169.411880,361.096313 168.022461,361.238922 
	C168.022461,364.020203 168.022461,366.608246 168.010468,370.050720 
M318.254456,362.782440 
	C317.182800,367.021820 316.111145,371.261230 315.075134,375.359528 
	C318.838959,375.359528 322.078247,375.359528 325.642578,375.359528 
	C324.634644,371.267548 323.723267,367.094879 322.551514,362.996674 
	C321.899017,360.714417 320.480377,360.044708 318.254456,362.782440 
M247.915329,361.546631 
	C247.168976,365.472900 246.422623,369.399200 245.676285,373.325470 
	C245.098953,373.278778 244.521637,373.232086 243.944305,373.185394 
	C243.579269,369.219269 243.214233,365.253143 242.849197,361.286987 
	C242.116806,361.343475 241.384430,361.399963 240.652039,361.456451 
	C240.952896,365.711975 241.052902,369.998810 241.707611,374.199158 
	C241.855820,375.150085 243.903534,376.368073 245.127594,376.428009 
	C246.324615,376.486633 248.601791,375.290649 248.652313,374.529144 
	C248.944962,370.118225 248.719574,365.672913 247.915329,361.546631 
M291.620850,372.246460 
	C290.014771,369.816650 288.408722,367.386810 286.732697,364.851135 
	C287.035217,364.813110 287.765625,364.767487 288.474915,364.620239 
	C289.324707,364.443909 290.156555,364.180817 291.320862,363.868042 
	C289.563629,360.791321 287.260406,359.980133 285.035217,361.900116 
	C279.042908,367.070496 286.191254,369.200134 288.696594,373.013184 
	C286.287415,372.663788 284.811676,372.449768 283.335938,372.235779 
	C283.086456,372.630646 282.836945,373.025543 282.587463,373.420441 
	C283.741821,374.354675 285.130005,376.242554 286.002869,376.028534 
	C287.938934,375.553894 289.616547,374.024841 291.620850,372.246460 
M337.218658,158.901810 
	C337.482422,161.264954 337.746185,163.628082 338.009979,165.991226 
	C339.808899,165.384155 341.965210,165.212677 343.338013,164.086273 
	C347.082001,161.014297 345.311554,157.498398 343.688934,153.479050 
	C341.386383,155.313400 339.516144,156.803345 337.218658,158.901810 
M194.129105,361.095184 
	C193.398834,361.875854 192.668564,362.656494 191.938293,363.437134 
	C195.845825,365.583405 193.486862,369.288086 194.135315,372.245575 
	C194.435043,373.612701 194.795425,374.966492 195.128326,376.326324 
	C195.496964,376.266235 195.865601,376.206146 196.234238,376.146057 
	C197.059494,371.537994 197.884750,366.929932 198.837006,361.612762 
	C198.250763,361.535553 196.575195,361.314850 194.129105,361.095184 
M181.606888,375.941040 
	C182.385483,374.541351 183.518219,373.224335 183.868332,371.724609 
	C184.579056,368.680145 184.866547,365.536926 185.415665,361.848877 
	C183.886978,361.848877 181.170547,361.848877 179.050873,361.848877 
	C179.801682,364.757202 180.566025,367.018158 180.929642,369.341797 
	C181.235550,371.296753 181.075211,373.324615 181.606888,375.941040 
M159.042160,371.288635 
	C159.042160,372.750702 159.042160,374.212738 159.042160,375.705902 
	C161.603973,375.705902 163.768295,375.705902 165.932602,375.705902 
	C166.067215,375.320496 166.201813,374.935089 166.336426,374.549683 
	C164.927643,373.735596 163.518860,372.921509 161.540497,371.778320 
	C161.540497,368.385193 161.540497,364.750977 161.540497,361.116760 
	C160.899368,361.082703 160.258240,361.048645 159.617111,361.014618 
	C159.425461,364.131500 159.233795,367.248413 159.042160,371.288635 
M339.895325,363.959137 
	C340.057220,366.146179 340.219116,368.333252 340.380981,370.520294 
	C341.161957,370.487396 341.942902,370.454498 342.723877,370.421600 
	C342.723877,367.689148 342.799744,364.952332 342.641907,362.229034 
	C342.618256,361.821594 341.498474,361.477661 340.885773,361.104340 
	C340.566315,361.794586 340.246857,362.484802 339.895325,363.959137 
M312.708221,165.926224 
	C314.442657,168.306412 316.177124,170.686600 317.911560,173.066788 
	C318.290253,172.772415 318.668945,172.478043 319.047638,172.183685 
	C316.576355,168.576172 314.105042,164.968658 311.633759,161.361145 
	C311.254639,161.613693 310.875519,161.866226 310.496399,162.118774 
	C311.105560,163.199402 311.714722,164.280029 312.708221,165.926224 
M328.405762,132.021027 
	C328.405762,132.021027 328.535187,131.881088 328.535187,131.881088 
	C328.535187,131.881088 328.429474,132.138382 328.405762,132.021027 
z"/>
<path fill="#D20154" opacity="1.000000" stroke="none" 
	d="
M229.999710,200.999451 
	C227.980698,210.386169 225.860336,219.752502 223.968933,229.164841 
	C221.741699,240.248505 219.762344,251.381744 217.581482,262.475006 
	C216.009064,270.473328 207.199188,276.035431 199.217896,274.311340 
	C196.883743,273.807159 193.866898,274.442871 192.219391,273.178986 
	C188.116837,270.031799 187.883224,263.828339 191.209366,259.717651 
	C194.737534,255.357254 199.417557,253.577332 204.958817,254.541229 
	C207.374130,254.961395 209.714386,255.813004 212.656708,256.625519 
	C213.184830,254.722870 213.766891,253.062927 214.100952,251.354492 
	C217.323914,234.871796 220.585190,218.395660 223.626160,201.879105 
	C224.187744,198.828979 223.790451,195.605515 223.871185,192.462952 
	C224.018814,186.717545 225.701447,185.010101 231.332474,185.004257 
	C248.981110,184.985962 266.632812,185.173798 284.276215,184.869553 
	C288.520172,184.796387 290.724731,186.805038 291.410095,190.056183 
	C292.406891,194.784653 293.433411,199.895096 292.653046,204.541321 
	C289.624420,222.574051 285.937012,240.497635 282.394348,258.442017 
	C280.060852,270.261749 273.553162,274.389252 261.568024,274.161346 
	C256.721191,274.069244 254.624420,272.557770 253.472382,268.730774 
	C252.130768,264.274078 253.498688,259.924774 257.393005,257.815704 
	C260.948608,255.890076 265.392792,255.603882 269.448395,254.607544 
	C269.593994,254.571777 269.772003,254.667328 269.934753,254.702454 
	C277.265045,256.284760 277.298920,256.291351 278.723694,248.987473 
	C281.429749,235.115601 284.107056,221.238052 286.756256,207.355225 
	C287.093475,205.587936 287.190674,203.774857 287.477417,201.309158 
	C284.771271,201.137421 282.384888,200.985977 279.522705,200.506088 
	C279.022003,199.774475 278.997131,199.371307 279.005615,198.568420 
	C278.016418,197.537003 276.998657,196.364441 275.970490,196.355209 
	C261.858765,196.228531 247.744995,196.211075 233.634171,196.376511 
	C232.733078,196.387085 231.852188,198.120850 230.862976,199.306091 
	C230.509262,200.039307 230.254486,200.519379 229.999710,200.999451 
z"/>
<path fill="#CF0153" opacity="1.000000" stroke="none" 
	d="
M195.428345,126.401772 
	C197.470337,125.664246 199.645126,124.403046 201.103867,124.973343 
	C211.480331,129.030014 221.681778,133.531357 232.002701,137.734589 
	C235.602158,139.200485 236.061050,141.433014 234.960098,144.850601 
	C230.289062,159.350449 219.813553,170.373566 212.080826,183.023972 
	C208.695114,188.562820 200.174591,188.677094 195.379410,184.288818 
	C193.283722,182.371002 194.019211,177.342575 197.242050,176.336441 
	C200.085266,175.448837 203.536469,176.069580 206.622253,176.594360 
	C208.038773,176.835251 209.223099,178.441650 210.941528,179.757080 
	C212.507217,177.575241 213.994614,175.641174 215.334808,173.609985 
	C220.101425,166.385620 224.820847,159.130112 229.551300,151.881943 
	C230.768845,150.016388 231.243805,148.982056 229.148148,146.579987 
	C220.891907,137.116608 208.167679,137.144135 197.862823,129.868927 
	C192.284088,138.295898 187.095535,146.113907 181.928955,153.946411 
	C179.454483,157.697693 177.045776,161.492416 174.564529,165.239166 
	C170.318069,171.651459 165.576782,172.766754 158.815384,168.990982 
	C154.673248,166.677872 154.289948,161.867188 158.598953,160.109299 
	C161.261093,159.023254 164.842514,159.785019 167.916000,160.293182 
	C169.336258,160.528015 170.528809,162.140060 172.427444,163.587173 
	C175.026535,159.680588 177.591339,156.082199 179.888641,152.320435 
	C185.072586,143.831818 190.124237,135.262405 195.428345,126.401772 
z"/>
<path fill="#D00153" opacity="1.000000" stroke="none" 
	d="
M255.233276,336.172974 
	C255.893738,329.753784 256.555267,323.798126 257.120605,317.833374 
	C257.919250,309.406982 260.771423,306.026154 267.108429,306.142151 
	C274.521790,306.277802 281.717804,312.323334 281.843475,318.521362 
	C281.964874,324.507721 276.437897,330.144135 269.619904,330.909302 
	C267.822998,331.111023 266.003723,331.113037 263.648529,331.235016 
	C263.347443,334.121094 263.063232,336.884369 262.769806,339.646667 
	C262.457581,342.585968 261.924377,345.786835 258.198395,345.632751 
	C253.855362,345.453217 255.069336,341.804810 255.029556,339.124390 
	C255.017227,338.294708 255.133820,337.463135 255.233276,336.172974 
M265.278931,314.959930 
	C265.029968,317.522461 264.781036,320.084961 264.490692,323.073639 
	C266.418945,323.073639 267.951263,323.514893 268.964233,322.977386 
	C270.800690,322.002899 272.327789,320.445404 273.984009,319.131287 
	C272.694977,317.592072 271.628632,315.730133 270.035858,314.631073 
	C269.032837,313.938934 267.241608,314.389130 265.278931,314.959930 
z"/>
<path fill="#D00153" opacity="1.000000" stroke="none" 
	d="
M204.639893,336.716064 
	C193.086975,340.725800 192.721344,340.516113 193.023590,328.817474 
	C193.186783,322.501404 193.776321,316.196350 193.938614,309.880280 
	C194.037720,306.023895 196.117325,304.772186 199.422012,305.366791 
	C202.339508,305.891693 205.326126,306.627563 207.984268,307.895142 
	C219.193542,313.240387 220.319519,326.505493 210.251831,333.735962 
	C208.648743,334.887299 206.758530,335.638855 204.639893,336.716064 
M205.785614,327.594757 
	C206.970505,324.908539 209.502304,321.912384 208.974808,319.620270 
	C208.407425,317.154816 204.970154,315.349823 202.785080,313.256653 
	C202.295639,313.620819 201.806213,313.985016 201.316772,314.349182 
	C201.316772,319.153412 201.316772,323.957672 201.316772,329.278137 
	C202.737000,328.795288 203.920944,328.392761 205.785614,327.594757 
z"/>
<path fill="#D00153" opacity="1.000000" stroke="none" 
	d="
M289.853119,314.670532 
	C290.998169,311.250641 291.477753,306.193512 293.276947,305.669769 
	C297.507141,304.438416 302.387054,305.173279 306.955017,305.617096 
	C307.761322,305.695435 308.888336,308.244171 308.824585,309.603180 
	C308.777161,310.613647 307.196930,311.889618 306.017914,312.412201 
	C304.898041,312.908569 303.412689,312.599945 302.087769,312.610443 
	C297.940826,312.643341 297.940765,312.636993 297.428284,317.776215 
	C298.673981,318.013580 300.232056,317.882294 301.151855,318.585632 
	C302.545166,319.651123 303.494446,321.297333 304.632385,322.696777 
	C303.192291,323.798981 301.881042,325.567047 300.287384,325.875458 
	C295.936676,326.717407 295.889465,326.473480 295.425171,331.151672 
	C298.399506,331.151672 301.448212,330.660858 304.218231,331.327667 
	C306.005157,331.757843 307.383362,333.885651 308.944763,335.252655 
	C307.316010,336.482422 305.830566,338.433105 304.028534,338.791351 
	C300.322540,339.528076 296.447021,339.409088 292.641693,339.649811 
	C288.156982,339.933533 286.543152,338.450867 287.074249,333.815948 
	C287.791779,327.553741 288.866119,321.332428 289.853119,314.670532 
z"/>
<path fill="#D00153" opacity="1.000000" stroke="none" 
	d="
M231.783646,328.853821 
	C234.535522,332.747986 237.306076,330.638733 238.226486,328.416931 
	C240.013992,324.102051 240.602875,319.304718 241.931732,314.778748 
	C242.454483,312.998260 243.304596,310.332367 244.572617,309.950073 
	C247.500107,309.067413 249.259201,311.268280 249.405319,314.140076 
	C249.844589,322.772583 248.394302,330.892578 240.988754,336.467773 
	C234.848984,341.090088 227.509781,339.350342 225.163162,332.145599 
	C223.250122,326.272034 222.840027,319.830444 222.453552,313.597961 
	C222.365967,312.185699 225.132599,310.596436 226.585434,309.088623 
	C227.717026,310.792084 229.490891,312.369690 229.854202,314.223694 
	C230.773666,318.915649 231.059570,323.731781 231.783646,328.853821 
z"/>
<path fill="#CB0252" opacity="1.000000" stroke="none" 
	d="
M316.346771,131.289200 
	C321.813751,125.703346 321.813751,125.703346 326.565277,130.679428 
	C316.564789,135.369354 310.115570,143.600906 303.689240,152.234604 
	C299.560699,150.129944 299.360382,149.500534 302.825226,145.710281 
	C307.190216,140.935364 311.672058,136.267288 316.346771,131.289200 
z"/>
<path fill="#EEEEEE" opacity="1.000000" stroke="none" 
	d="
M235.516296,371.818909 
	C234.071594,371.206635 232.681870,370.983704 231.051102,370.722107 
	C231.022415,371.181335 231.156982,372.042206 230.882507,372.742737 
	C230.425262,373.909668 229.705917,374.973907 229.096954,376.081390 
	C228.586929,374.885345 227.729767,373.715149 227.638443,372.487946 
	C227.442810,369.858643 227.490082,367.184875 227.747437,364.559692 
	C227.869843,363.310760 228.701004,362.131287 229.211105,360.920349 
	C230.161591,361.867004 231.130173,362.796417 232.054581,363.767853 
	C232.486969,364.222260 232.834030,364.757904 233.394424,365.482605 
	C233.983154,364.367920 234.281067,363.385620 234.912811,362.720367 
	C235.602814,361.993805 236.601822,361.560669 237.466141,360.999634 
	C237.897995,361.813812 238.656830,362.609985 238.702805,363.445404 
	C238.866226,366.414642 238.927933,369.406555 238.732544,372.370392 
	C238.649689,373.627319 237.834274,374.835968 237.351807,376.066559 
	C236.758286,374.780457 236.164780,373.494354 235.516296,371.818909 
z"/>
<path fill="#E7E6E6" opacity="1.000000" stroke="none" 
	d="
M270.182190,371.020813 
	C272.124634,372.177032 273.966431,372.957397 276.795685,374.156189 
	C275.202301,375.101471 273.694458,376.621948 272.971680,376.311981 
	C270.409668,375.213135 268.115784,373.489197 265.831238,372.070984 
	C265.640961,372.762848 265.158020,374.518829 264.675079,376.274841 
	C264.232483,376.217804 263.789856,376.160736 263.347229,376.103699 
	C263.347229,371.089233 263.347229,366.074738 263.347229,361.060272 
	C263.781921,360.975891 264.216583,360.891510 264.651276,360.807129 
	C265.198303,363.245880 265.745331,365.684601 266.325928,368.273132 
	C269.032501,360.733459 271.387207,359.413177 276.652069,363.341125 
	C271.790680,363.800934 268.928802,365.742157 270.182190,371.020813 
z"/>
<path fill="#E7E6E6" opacity="1.000000" stroke="none" 
	d="
M203.722366,361.241180 
	C204.492661,363.112152 204.894012,364.768127 205.295349,366.424133 
	C205.714722,366.382690 206.134079,366.341278 206.553436,366.299835 
	C207.147141,364.470947 207.740829,362.642029 208.419601,360.551025 
	C210.186218,362.578552 211.744934,373.595154 210.694748,375.281860 
	C210.411453,375.736877 209.482452,376.253937 209.132324,376.100006 
	C208.528580,375.834564 207.871368,375.128815 207.725616,374.495331 
	C207.369934,372.949585 207.294128,371.339478 207.105667,369.755280 
	C206.542206,369.641724 205.978745,369.528168 205.415283,369.414612 
	C204.778625,371.675171 204.141968,373.935730 203.472366,376.313293 
	C203.011566,376.278168 202.152405,376.251648 202.151474,376.207062 
	C202.047424,371.265045 201.997681,366.321655 202.022141,361.378693 
	C202.022736,361.259003 202.890244,361.143616 203.722366,361.241180 
z"/>
<path fill="#F5F5F5" opacity="1.000000" stroke="none" 
	d="
M304.502472,363.307220 
	C306.237061,359.013702 309.784882,361.628387 312.533752,361.199219 
	C312.330841,362.190979 312.444885,363.520203 311.842163,364.086334 
	C311.140106,364.745819 309.810944,364.737793 308.268097,365.148834 
	C309.915375,366.092743 311.053192,366.744720 312.281219,367.448395 
	C310.636963,369.018707 309.227509,370.364777 307.447144,372.065094 
	C310.203461,373.046356 311.946991,373.667053 313.690491,374.287750 
	C313.607117,374.809479 313.523743,375.331207 313.440369,375.852936 
	C310.677429,375.987091 307.914520,376.121246 304.750305,376.274872 
	C304.750305,373.950104 304.750305,372.165436 304.397919,370.011322 
	C304.045532,369.641876 304.056885,369.539856 304.389893,368.987183 
	C304.133301,368.109009 303.543640,367.783569 303.014221,367.222137 
	C303.035156,366.504791 302.995911,366.023438 303.586639,365.652588 
	C304.164520,364.992340 304.112396,364.221619 304.137146,363.452332 
	C304.214020,363.453827 304.502472,363.307220 304.502472,363.307220 
z"/>
<path fill="#E7E6E6" opacity="1.000000" stroke="none" 
	d="
M327.179688,364.494690 
	C327.566406,362.951569 327.951416,361.842010 328.684021,359.730804 
	C329.863190,361.873413 330.442413,362.925934 331.027740,363.989502 
	C332.484314,362.769775 333.904968,361.580139 335.325592,360.390472 
	C335.933716,360.521088 336.541809,360.651672 337.149902,360.782257 
	C331.698090,366.182953 334.670105,370.759338 337.846893,375.315704 
	C337.338531,375.672913 336.830200,376.030090 336.321838,376.387299 
	C334.604858,374.651428 332.887878,372.915558 331.110260,371.118347 
	C330.614044,372.959991 330.129395,374.758606 329.644775,376.557220 
	C329.021240,376.559784 328.397705,376.562317 327.774170,376.564880 
	C327.575439,372.686035 327.376709,368.807159 327.179688,364.494690 
z"/>
<path fill="#EEEEEE" opacity="1.000000" stroke="none" 
	d="
M304.141754,363.565002 
	C304.502472,363.307220 304.214020,363.453827 303.622131,363.472595 
	C303.005707,364.174957 302.981171,364.858490 302.956665,365.542053 
	C302.995911,366.023438 303.035156,366.504791 303.051086,367.709900 
	C303.370758,368.802338 303.713837,369.171112 304.056885,369.539856 
	C304.056885,369.539856 304.045532,369.641876 304.082092,369.637817 
	C301.282867,371.483948 298.447113,373.334167 294.901337,375.647644 
	C295.115967,375.944489 294.191559,375.240662 294.116394,374.455505 
	C293.880463,371.990509 293.771576,369.478180 293.985229,367.016479 
	C294.154968,365.060699 294.870667,363.152313 295.343933,361.222870 
	C297.729980,361.872772 300.120148,362.508362 302.498505,363.185242 
	C302.949921,363.313721 303.354736,363.606049 304.141754,363.565002 
z"/>
<path fill="#EEEEEE" opacity="1.000000" stroke="none" 
	d="
M214.356735,360.950439 
	C216.764999,360.912628 218.729828,360.912628 220.694656,360.912628 
	C220.926147,361.446930 221.157623,361.981232 221.389114,362.515533 
	C219.851288,363.460480 218.313477,364.405426 216.737930,365.373535 
	C217.826920,366.095947 218.940445,366.834625 220.132446,367.625366 
	C218.422882,369.118927 216.977692,370.381500 215.164978,371.965179 
	C218.034088,373.092224 219.754486,373.768005 221.474884,374.443817 
	C221.289032,374.946594 221.103165,375.449341 220.917313,375.952118 
	C218.199173,375.952118 215.481033,375.952118 211.722916,375.952118 
	C212.489090,370.717957 213.201187,365.853119 214.356735,360.950439 
z"/>
<path fill="#EEEEEE" opacity="1.000000" stroke="none" 
	d="
M168.016464,369.623535 
	C168.022461,366.608246 168.022461,364.020203 168.022461,361.238922 
	C169.411880,361.096313 170.244232,360.815704 170.983246,360.973145 
	C172.878311,361.376862 174.731888,361.975250 176.602066,362.495789 
	C175.120346,363.460083 173.638626,364.424408 172.085358,365.435272 
	C173.170685,366.053528 174.315247,366.705566 175.550461,367.409241 
	C173.938629,368.984009 172.565598,370.325439 170.817017,372.033813 
	C173.595566,373.057831 175.327469,373.696075 177.059372,374.334351 
	C176.974731,374.841919 176.890091,375.349518 176.805450,375.857086 
	C174.013077,376.010437 171.220703,376.163788 168.010468,376.340088 
	C168.010468,373.915588 168.010468,371.983154 168.016464,369.623535 
z"/>
<path fill="#EEEEEE" opacity="1.000000" stroke="none" 
	d="
M318.445160,362.441284 
	C320.480377,360.044708 321.899017,360.714417 322.551514,362.996674 
	C323.723267,367.094879 324.634644,371.267548 325.642578,375.359528 
	C322.078247,375.359528 318.838959,375.359528 315.075134,375.359528 
	C316.111145,371.261230 317.182800,367.021820 318.445160,362.441284 
z"/>
<path fill="#EEEEEE" opacity="1.000000" stroke="none" 
	d="
M248.292404,361.392944 
	C248.719574,365.672913 248.944962,370.118225 248.652313,374.529144 
	C248.601791,375.290649 246.324615,376.486633 245.127594,376.428009 
	C243.903534,376.368073 241.855820,375.150085 241.707611,374.199158 
	C241.052902,369.998810 240.952896,365.711975 240.652039,361.456451 
	C241.384430,361.399963 242.116806,361.343475 242.849197,361.286987 
	C243.214233,365.253143 243.579269,369.219269 243.944305,373.185394 
	C244.521637,373.232086 245.098953,373.278778 245.676285,373.325470 
	C246.422623,369.399200 247.168976,365.472900 248.292404,361.392944 
z"/>
<path fill="#EEEEEE" opacity="1.000000" stroke="none" 
	d="
M256.530975,372.144623 
	C255.286057,370.983978 253.723099,370.011780 252.890671,368.606750 
	C252.141724,367.342621 251.596039,365.380676 252.059998,364.136383 
	C252.531830,362.870941 254.259232,361.490875 255.598892,361.300262 
	C256.867645,361.119812 258.346619,362.416992 259.733124,363.064331 
	C259.602325,363.475403 259.471497,363.886505 259.340698,364.297607 
	C257.928467,364.620361 256.516205,364.943146 254.368912,365.433899 
	C256.263336,366.763763 258.257111,367.423340 258.693848,368.641296 
	C259.369720,370.526123 259.721222,373.245636 258.800537,374.746277 
	C258.122894,375.850739 255.196838,375.732971 253.261627,375.790955 
	C252.813690,375.804413 252.320679,374.313599 251.848404,373.514954 
	C252.536255,373.135864 253.224106,372.756744 254.427353,372.642700 
	C255.472168,372.653381 256.001556,372.399017 256.530975,372.144623 
z"/>
<path fill="#E7E6E6" opacity="1.000000" stroke="none" 
	d="
M291.510193,372.586060 
	C289.616547,374.024841 287.938934,375.553894 286.002869,376.028534 
	C285.130005,376.242554 283.741821,374.354675 282.587463,373.420441 
	C282.836945,373.025543 283.086456,372.630646 283.335938,372.235779 
	C284.811676,372.449768 286.287415,372.663788 288.696594,373.013184 
	C286.191254,369.200134 279.042908,367.070496 285.035217,361.900116 
	C287.260406,359.980133 289.563629,360.791321 291.320862,363.868042 
	C290.156555,364.180817 289.324707,364.443909 288.474915,364.620239 
	C287.765625,364.767487 287.035217,364.813110 286.732697,364.851135 
	C288.408722,367.386810 290.014771,369.816650 291.510193,372.586060 
z"/>
<path fill="#960C42" opacity="1.000000" stroke="none" 
	d="
M230.468018,201.020111 
	C230.254486,200.519379 230.509262,200.039307 231.334244,199.330307 
	C247.593704,199.056976 263.282990,199.012558 278.972260,198.968140 
	C278.997131,199.371307 279.022003,199.774475 279.076111,200.478943 
	C263.049011,200.867081 246.992661,200.953918 230.468018,201.020111 
z"/>
<path fill="#CB0252" opacity="1.000000" stroke="none" 
	d="
M322.046570,176.960510 
	C324.886047,181.885376 324.570984,185.157990 320.662109,187.965851 
	C319.548462,188.765793 317.036255,189.539978 316.662750,189.088150 
	C315.550446,187.742661 314.203613,185.342560 314.735870,184.156952 
	C315.715698,181.974365 317.971283,180.364487 320.198975,178.164001 
	C321.150757,177.528214 321.598663,177.244354 322.046570,176.960510 
z"/>
<path fill="#CF0153" opacity="1.000000" stroke="none" 
	d="
M337.432281,158.597534 
	C339.516144,156.803345 341.386383,155.313400 343.688934,153.479050 
	C345.311554,157.498398 347.082001,161.014297 343.338013,164.086273 
	C341.965210,165.212677 339.808899,165.384155 338.009979,165.991226 
	C337.746185,163.628082 337.482422,161.264954 337.432281,158.597534 
z"/>
<path fill="#E7E6E6" opacity="1.000000" stroke="none" 
	d="
M194.514374,361.094666 
	C196.575195,361.314850 198.250763,361.535553 198.837006,361.612762 
	C197.884750,366.929932 197.059494,371.537994 196.234238,376.146057 
	C195.865601,376.206146 195.496964,376.266235 195.128326,376.326324 
	C194.795425,374.966492 194.435043,373.612701 194.135315,372.245575 
	C193.486862,369.288086 195.845825,365.583405 191.938293,363.437134 
	C192.668564,362.656494 193.398834,361.875854 194.514374,361.094666 
z"/>
<path fill="#E7E6E6" opacity="1.000000" stroke="none" 
	d="
M181.364090,375.630615 
	C181.075211,373.324615 181.235550,371.296753 180.929642,369.341797 
	C180.566025,367.018158 179.801682,364.757202 179.050873,361.848877 
	C181.170547,361.848877 183.886978,361.848877 185.415665,361.848877 
	C184.866547,365.536926 184.579056,368.680145 183.868332,371.724609 
	C183.518219,373.224335 182.385483,374.541351 181.364090,375.630615 
z"/>
<path fill="#EEEEEE" opacity="1.000000" stroke="none" 
	d="
M159.042145,370.826965 
	C159.233795,367.248413 159.425461,364.131500 159.617111,361.014618 
	C160.258240,361.048645 160.899368,361.082703 161.540497,361.116760 
	C161.540497,364.750977 161.540497,368.385193 161.540497,371.778320 
	C163.518860,372.921509 164.927643,373.735596 166.336426,374.549683 
	C166.201813,374.935089 166.067215,375.320496 165.932602,375.705902 
	C163.768295,375.705902 161.603973,375.705902 159.042160,375.705902 
	C159.042160,374.212738 159.042160,372.750702 159.042145,370.826965 
z"/>
<path fill="#E7E6E6" opacity="1.000000" stroke="none" 
	d="
M339.911377,363.567078 
	C340.246857,362.484802 340.566315,361.794586 340.885773,361.104340 
	C341.498474,361.477661 342.618256,361.821594 342.641907,362.229034 
	C342.799744,364.952332 342.723877,367.689148 342.723877,370.421600 
	C341.942902,370.454498 341.161957,370.487396 340.380981,370.520294 
	C340.219116,368.333252 340.057220,366.146179 339.911377,363.567078 
z"/>
<path fill="#960C42" opacity="1.000000" stroke="none" 
	d="
M312.516052,165.643448 
	C311.714722,164.280029 311.105560,163.199402 310.496399,162.118774 
	C310.875519,161.866226 311.254639,161.613693 311.633759,161.361145 
	C314.105042,164.968658 316.576355,168.576172 319.047638,172.183685 
	C318.668945,172.478043 318.290253,172.772415 317.911560,173.066788 
	C316.177124,170.686600 314.442657,168.306412 312.516052,165.643448 
z"/>
<path fill="#960C42" opacity="1.000000" stroke="none" 
	d="
M321.967651,176.633682 
	C321.598663,177.244354 321.150757,177.528214 320.470703,177.943146 
	C319.913422,176.887863 319.588226,175.701508 318.830322,172.936584 
	C320.486053,174.761124 321.187378,175.533997 321.967651,176.633682 
z"/>
<path fill="#CB0252" opacity="1.000000" stroke="none" 
	d="
M328.417603,132.079712 
	C328.429474,132.138382 328.535187,131.881088 328.535187,131.881088 
	C328.535187,131.881088 328.405762,132.021027 328.417603,132.079712 
z"/>
<path fill="#401A29" opacity="1.000000" stroke="none" 
	d="
M279.005615,198.568420 
	C263.282990,199.012558 247.593704,199.056976 231.433167,199.077179 
	C231.852188,198.120850 232.733078,196.387085 233.634171,196.376511 
	C247.744995,196.211075 261.858765,196.228531 275.970490,196.355209 
	C276.998657,196.364441 278.016418,197.537003 279.005615,198.568420 
z"/>
<path fill="#2A1E24" opacity="1.000000" stroke="none" 
	d="
M265.541443,314.643402 
	C267.241608,314.389130 269.032837,313.938934 270.035858,314.631073 
	C271.628632,315.730133 272.694977,317.592072 273.984009,319.131287 
	C272.327789,320.445404 270.800690,322.002899 268.964233,322.977386 
	C267.951263,323.514893 266.418945,323.073639 264.490692,323.073639 
	C264.781036,320.084961 265.029968,317.522461 265.541443,314.643402 
z"/>
<path fill="#2A1E24" opacity="1.000000" stroke="none" 
	d="
M205.445251,327.792480 
	C203.920944,328.392761 202.737000,328.795288 201.316772,329.278137 
	C201.316772,323.957672 201.316772,319.153412 201.316772,314.349182 
	C201.806213,313.985016 202.295639,313.620819 202.785080,313.256653 
	C204.970154,315.349823 208.407425,317.154816 208.974808,319.620270 
	C209.502304,321.912384 206.970505,324.908539 205.445251,327.792480 
z"/>
<path fill="#251F23" opacity="1.000000" stroke="none" 
	d="
M303.586639,365.652588 
	C302.981171,364.858490 303.005707,364.174957 303.545227,363.471130 
	C304.112396,364.221619 304.164520,364.992340 303.586639,365.652588 
z"/>
<path fill="#251F23" opacity="1.000000" stroke="none" 
	d="
M304.389893,368.987183 
	C303.713837,369.171112 303.370758,368.802338 302.990845,367.945862 
	C303.543640,367.783569 304.133301,368.109009 304.389893,368.987183 
z"/>
<path fill="#251F23" opacity="1.000000" stroke="none" 
	d="
M255.998337,372.182922 
	C256.001556,372.399017 255.472168,372.653381 254.713470,372.775024 
	C254.811340,372.501892 255.138519,372.361542 255.998337,372.182922 
z"/>
</svg>